<svg width="140" height="63" viewBox="0 0 140 63" fill="none" xmlns="http://www.w3.org/2000/svg">
<path d="M12.2662 5.32599H9.87559C9.80741 4.93395 9.6817 4.58665 9.49846 4.28409C9.31522 3.97727 9.08724 3.71733 8.81451 3.50426C8.54179 3.29119 8.23071 3.13139 7.88127 3.02486C7.5361 2.91406 7.16323 2.85866 6.76267 2.85866C6.05102 2.85866 5.42034 3.03764 4.87062 3.3956C4.3209 3.74929 3.89051 4.26918 3.57943 4.95526C3.26835 5.63707 3.11281 6.47017 3.11281 7.45455C3.11281 8.45597 3.26835 9.29972 3.57943 9.9858C3.89477 10.6676 4.32517 11.1832 4.87062 11.5327C5.42034 11.8778 6.04889 12.0504 6.75627 12.0504C7.14832 12.0504 7.5148 11.9993 7.85571 11.897C8.20088 11.7905 8.50982 11.6349 8.78255 11.4304C9.05954 11.2259 9.29179 10.9744 9.47929 10.6761C9.67105 10.3778 9.80315 10.0369 9.87559 9.65341L12.2662 9.66619C12.1767 10.2884 11.9828 10.8722 11.6845 11.4176C11.3905 11.9631 11.0049 12.4446 10.5276 12.8622C10.0503 13.2756 9.49207 13.5994 8.85286 13.8338C8.21366 14.0639 7.50414 14.179 6.72431 14.179C5.57375 14.179 4.54676 13.9126 3.64335 13.38C2.73994 12.8473 2.02829 12.0781 1.5084 11.0724C0.988518 10.0668 0.728575 8.8608 0.728575 7.45455C0.728575 6.04403 0.990648 4.83807 1.5148 3.83665C2.03894 2.83097 2.75272 2.06179 3.65613 1.52912C4.55954 0.996448 5.58227 0.730113 6.72431 0.730113C7.45301 0.730113 8.13056 0.832386 8.75698 1.03693C9.3834 1.24148 9.94164 1.5419 10.4317 1.93821C10.9218 2.33026 11.3245 2.81179 11.6398 3.38281C11.9594 3.94957 12.1682 4.5973 12.2662 5.32599ZM29.1954 7.45455C29.1954 8.86506 28.9312 10.0732 28.4027 11.0788C27.8786 12.0803 27.1627 12.8473 26.255 13.38C25.3516 13.9126 24.3267 14.179 23.1804 14.179C22.0341 14.179 21.0071 13.9126 20.0995 13.38C19.1961 12.843 18.4802 12.0739 17.9517 11.0724C17.4276 10.0668 17.1655 8.8608 17.1655 7.45455C17.1655 6.04403 17.4276 4.83807 17.9517 3.83665C18.4802 2.83097 19.1961 2.06179 20.0995 1.52912C21.0071 0.996448 22.0341 0.730113 23.1804 0.730113C24.3267 0.730113 25.3516 0.996448 26.255 1.52912C27.1627 2.06179 27.8786 2.83097 28.4027 3.83665C28.9312 4.83807 29.1954 6.04403 29.1954 7.45455ZM26.8111 7.45455C26.8111 6.46165 26.6556 5.62429 26.3445 4.94247C26.0377 4.25639 25.6116 3.73864 25.0661 3.3892C24.5206 3.03551 23.8921 2.85866 23.1804 2.85866C22.4688 2.85866 21.8402 3.03551 21.2948 3.3892C20.7493 3.73864 20.3211 4.25639 20.01 4.94247C19.7032 5.62429 19.5498 6.46165 19.5498 7.45455C19.5498 8.44744 19.7032 9.28693 20.01 9.97301C20.3211 10.6548 20.7493 11.1726 21.2948 11.5263C21.8402 11.8757 22.4688 12.0504 23.1804 12.0504C23.8921 12.0504 24.5206 11.8757 25.0661 11.5263C25.6116 11.1726 26.0377 10.6548 26.3445 9.97301C26.6556 9.28693 26.8111 8.44744 26.8111 7.45455ZM34.4974 0.909091H37.3994L41.2857 10.3949H41.4391L45.3255 0.909091H48.2275V14H45.9519V5.00639H45.8305L42.2126 13.9616H40.5123L36.8944 4.98722H36.7729V14H34.4974V0.909091ZM53.8699 0.909091H56.7719L60.6582 10.3949H60.8116L64.698 0.909091H67.6V14H65.3244V5.00639H65.203L61.5851 13.9616H59.8848L56.2669 4.98722H56.1454V14H53.8699V0.909091ZM81.4945 0.909091H83.8659V9.46165C83.8659 10.3991 83.6444 11.2237 83.2012 11.9354C82.7623 12.647 82.1444 13.2031 81.3475 13.6037C80.5506 14 79.6195 14.1982 78.5542 14.1982C77.4846 14.1982 76.5513 14 75.7544 13.6037C74.9576 13.2031 74.3397 12.647 73.9007 11.9354C73.4618 11.2237 73.2424 10.3991 73.2424 9.46165V0.909091H75.6138V9.26349C75.6138 9.80895 75.7331 10.2947 75.9718 10.7209C76.2147 11.147 76.5556 11.4815 76.9945 11.7244C77.4334 11.9631 77.9533 12.0824 78.5542 12.0824C79.155 12.0824 79.6749 11.9631 80.1138 11.7244C80.557 11.4815 80.8979 11.147 81.1365 10.7209C81.3752 10.2947 81.4945 9.80895 81.4945 9.26349V0.909091ZM100.261 0.909091V14H98.152L91.9837 5.0831H91.875V14H89.5035V0.909091H91.6257L97.7876 9.83239H97.9027V0.909091H100.261ZM108.277 0.909091V14H105.905V0.909091H108.277ZM113.33 2.89702V0.909091H123.774V2.89702H119.728V14H117.376V2.89702H113.33ZM127.953 0.909091H130.631L133.833 6.70028H133.961L137.164 0.909091H139.842L135.08 9.11648V14H132.715V9.11648L127.953 0.909091ZM9.06069 27.6378C9.00387 27.0649 8.76003 26.6198 8.32916 26.3026C7.89829 25.9853 7.31353 25.8267 6.5749 25.8267C6.073 25.8267 5.64923 25.8977 5.30359 26.0398C4.95794 26.1771 4.69279 26.3688 4.50813 26.6151C4.32821 26.8613 4.23825 27.1406 4.23825 27.4531C4.22878 27.7135 4.28323 27.9408 4.4016 28.1349C4.52471 28.3291 4.69279 28.4972 4.90586 28.6392C5.11893 28.7765 5.36514 28.8973 5.6445 29.0014C5.92385 29.1009 6.22215 29.1861 6.53938 29.2571L7.8462 29.5696C8.48067 29.7116 9.06306 29.901 9.59336 30.1378C10.1237 30.3745 10.5829 30.6657 10.9712 31.0114C11.3595 31.357 11.6601 31.7642 11.8732 32.233C12.091 32.7017 12.2023 33.2391 12.207 33.8452C12.2023 34.7353 11.975 35.5071 11.5252 36.1605C11.0801 36.8092 10.4362 37.3134 9.59336 37.6733C8.75529 38.0284 7.7444 38.206 6.56069 38.206C5.38645 38.206 4.36372 38.026 3.49251 37.6662C2.62603 37.3063 1.94895 36.7737 1.46126 36.0682C0.978304 35.358 0.72499 34.4796 0.701315 33.4332H3.67717C3.71031 33.9209 3.84999 34.3281 4.0962 34.6548C4.34715 34.9768 4.68096 35.2206 5.09762 35.3864C5.51902 35.5473 5.99488 35.6278 6.52518 35.6278C7.04601 35.6278 7.49819 35.5521 7.88171 35.4006C8.26997 35.2491 8.57063 35.0384 8.7837 34.7685C8.99677 34.4986 9.1033 34.1884 9.1033 33.8381C9.1033 33.5114 9.00624 33.2367 8.81211 33.0142C8.62272 32.7917 8.34336 32.6023 7.97404 32.446C7.60946 32.2898 7.16202 32.1477 6.63171 32.0199L5.04791 31.6222C3.82158 31.3239 2.8533 30.8575 2.14308 30.223C1.43285 29.5885 1.0801 28.7339 1.08484 27.6591C1.0801 26.7784 1.31448 26.009 1.78796 25.3509C2.26618 24.6927 2.92196 24.179 3.75529 23.8097C4.58863 23.4403 5.5356 23.2557 6.5962 23.2557C7.67575 23.2557 8.61798 23.4403 9.42291 23.8097C10.2326 24.179 10.8623 24.6927 11.3121 25.3509C11.7619 26.009 11.9939 26.7713 12.0081 27.6378H9.06069ZM35.8093 28.5469H32.6985C32.6417 28.1444 32.5257 27.7869 32.3505 27.4744C32.1753 27.1572 31.9504 26.8873 31.6758 26.6648C31.4012 26.4422 31.084 26.2718 30.7241 26.1534C30.369 26.035 29.9831 25.9759 29.5664 25.9759C28.8136 25.9759 28.1578 26.1629 27.5991 26.5369C27.0404 26.9062 26.6072 27.446 26.2994 28.1562C25.9916 28.8617 25.8378 29.7187 25.8378 30.7273C25.8378 31.7642 25.9916 32.6354 26.2994 33.3409C26.6119 34.0464 27.0475 34.5791 27.6062 34.9389C28.1649 35.2988 28.8112 35.4787 29.5451 35.4787C29.9571 35.4787 30.3382 35.4242 30.6886 35.3153C31.0437 35.2064 31.3586 35.0478 31.6332 34.8395C31.9078 34.6264 32.1351 34.3684 32.315 34.0653C32.4997 33.7623 32.6275 33.4167 32.6985 33.0284L35.8093 33.0426C35.7288 33.7102 35.5276 34.3542 35.2056 34.9744C34.8884 35.59 34.4599 36.1416 33.9201 36.6293C33.3851 37.1122 32.7459 37.4957 32.0025 37.7798C31.2639 38.0592 30.4282 38.1989 29.4954 38.1989C28.1981 38.1989 27.038 37.9053 26.0153 37.3182C24.9973 36.7311 24.1924 35.8812 23.6005 34.7685C23.0134 33.6558 22.7199 32.3087 22.7199 30.7273C22.7199 29.1411 23.0181 27.7917 23.6147 26.679C24.2113 25.5663 25.021 24.7187 26.0437 24.1364C27.0664 23.5492 28.217 23.2557 29.4954 23.2557C30.3382 23.2557 31.1195 23.3741 31.8392 23.6108C32.5636 23.8475 33.2052 24.1932 33.7639 24.6477C34.3226 25.0975 34.7771 25.6491 35.1275 26.3026C35.4826 26.956 35.7099 27.7041 35.8093 28.5469ZM49.7899 23.4545V38H46.7146V23.4545H49.7899ZM61.0201 38V23.4545H70.8212V25.9901H64.0953V29.456H70.3169V31.9915H64.0953V35.4645H70.8496V38H61.0201ZM94.1324 23.4545V38H91.4761L85.148 28.8452H85.0414V38H81.9662V23.4545H84.665L90.9434 32.6023H91.0713V23.4545H94.1324ZM118.207 28.5469H115.096C115.039 28.1444 114.923 27.7869 114.748 27.4744C114.573 27.1572 114.348 26.8873 114.073 26.6648C113.799 26.4422 113.482 26.2718 113.122 26.1534C112.767 26.035 112.381 25.9759 111.964 25.9759C111.211 25.9759 110.555 26.1629 109.997 26.5369C109.438 26.9062 109.005 27.446 108.697 28.1562C108.389 28.8617 108.235 29.7187 108.235 30.7273C108.235 31.7642 108.389 32.6354 108.697 33.3409C109.01 34.0464 109.445 34.5791 110.004 34.9389C110.563 35.2988 111.209 35.4787 111.943 35.4787C112.355 35.4787 112.736 35.4242 113.086 35.3153C113.441 35.2064 113.756 35.0478 114.031 34.8395C114.305 34.6264 114.533 34.3684 114.713 34.0653C114.897 33.7623 115.025 33.4167 115.096 33.0284L118.207 33.0426C118.127 33.7102 117.925 34.3542 117.603 34.9744C117.286 35.59 116.858 36.1416 116.318 36.6293C115.783 37.1122 115.144 37.4957 114.4 37.7798C113.662 38.0592 112.826 38.1989 111.893 38.1989C110.596 38.1989 109.436 37.9053 108.413 37.3182C107.395 36.7311 106.59 35.8812 105.998 34.7685C105.411 33.6558 105.118 32.3087 105.118 30.7273C105.118 29.1411 105.416 27.7917 106.012 26.679C106.609 25.5663 107.419 24.7187 108.441 24.1364C109.464 23.5492 110.615 23.2557 111.893 23.2557C112.736 23.2557 113.517 23.3741 114.237 23.6108C114.961 23.8475 115.603 24.1932 116.162 24.6477C116.72 25.0975 117.175 25.6491 117.525 26.3026C117.88 26.956 118.108 27.7041 118.207 28.5469ZM129.112 38V23.4545H138.913V25.9901H132.188V29.456H138.409V31.9915H132.188V35.4645H138.942V38H129.112ZM0.947798 47.4545H4.74041L8.74609 57.2273H8.91655L12.9222 47.4545H16.7148V62H13.7319V52.5327H13.6112L9.84695 61.929H7.8157L4.05149 52.4972H3.93075V62H0.947798V47.4545ZM38.133 47.4545H41.2082V56.9006C41.2082 57.9612 40.9549 58.8892 40.4483 59.6847C39.9464 60.4801 39.2433 61.1004 38.3389 61.5455C37.4346 61.9858 36.3811 62.206 35.1784 62.206C33.971 62.206 32.9152 61.9858 32.0108 61.5455C31.1064 61.1004 30.4033 60.4801 29.9014 59.6847C29.3995 58.8892 29.1486 57.9612 29.1486 56.9006V47.4545H32.2239V56.6378C32.2239 57.1918 32.3446 57.6842 32.5861 58.1151C32.8323 58.5459 33.1779 58.8845 33.623 59.1307C34.0681 59.3769 34.5866 59.5 35.1784 59.5C35.775 59.5 36.2935 59.3769 36.7338 59.1307C37.1789 58.8845 37.5222 58.5459 37.7636 58.1151C38.0099 57.6842 38.133 57.1918 38.133 56.6378V47.4545ZM61.529 51.6378C61.4722 51.0649 61.2284 50.6198 60.7975 50.3026C60.3666 49.9853 59.7819 49.8267 59.0433 49.8267C58.5414 49.8267 58.1176 49.8977 57.7719 50.0398C57.4263 50.1771 57.1611 50.3688 56.9765 50.6151C56.7966 50.8613 56.7066 51.1406 56.7066 51.4531C56.6971 51.7135 56.7516 51.9408 56.87 52.1349C56.9931 52.3291 57.1611 52.4972 57.3742 52.6392C57.5873 52.7765 57.8335 52.8973 58.1129 53.0014C58.3922 53.1009 58.6905 53.1861 59.0077 53.2571L60.3146 53.5696C60.949 53.7116 61.5314 53.901 62.0617 54.1378C62.592 54.3745 63.0513 54.6657 63.4396 55.0114C63.8278 55.357 64.1285 55.7642 64.3415 56.233C64.5594 56.7017 64.6706 57.2391 64.6754 57.8452C64.6706 58.7353 64.4433 59.5071 63.9935 60.1605C63.5485 60.8092 62.9045 61.3134 62.0617 61.6733C61.2237 62.0284 60.2128 62.206 59.029 62.206C57.8548 62.206 56.8321 62.026 55.9609 61.6662C55.0944 61.3063 54.4173 60.7737 53.9296 60.0682C53.4467 59.358 53.1933 58.4796 53.1697 57.4332H56.1455C56.1787 57.9209 56.3183 58.3281 56.5646 58.6548C56.8155 58.9768 57.1493 59.2206 57.566 59.3864C57.9874 59.5473 58.4632 59.6278 58.9935 59.6278C59.5144 59.6278 59.9665 59.5521 60.3501 59.4006C60.7383 59.2491 61.039 59.0384 61.2521 58.7685C61.4651 58.4986 61.5717 58.1884 61.5717 57.8381C61.5717 57.5114 61.4746 57.2367 61.2805 57.0142C61.0911 56.7917 60.8117 56.6023 60.4424 56.446C60.0778 56.2898 59.6304 56.1477 59.1001 56.0199L57.5163 55.6222C56.2899 55.3239 55.3217 54.8575 54.6114 54.223C53.9012 53.5885 53.5485 52.7339 53.5532 51.6591C53.5485 50.7784 53.7828 50.009 54.2563 49.3509C54.7345 48.6927 55.3903 48.179 56.2236 47.8097C57.057 47.4403 58.004 47.2557 59.0646 47.2557C60.1441 47.2557 61.0863 47.4403 61.8913 47.8097C62.7009 48.179 63.3307 48.6927 63.7805 49.3509C64.2303 50.009 64.4623 50.7713 64.4765 51.6378H61.529ZM76.6439 62V47.4545H86.445V49.9901H79.7192V53.456H85.9408V55.9915H79.7192V59.4645H86.4734V62H76.6439ZM107.774 47.4545H110.85V56.9006C110.85 57.9612 110.596 58.8892 110.09 59.6847C109.588 60.4801 108.885 61.1004 107.98 61.5455C107.076 61.9858 106.022 62.206 104.82 62.206C103.612 62.206 102.557 61.9858 101.652 61.5455C100.748 61.1004 100.045 60.4801 99.5428 59.6847C99.0409 58.8892 98.79 57.9612 98.79 56.9006V47.4545H101.865V56.6378C101.865 57.1918 101.986 57.6842 102.227 58.1151C102.474 58.5459 102.819 58.8845 103.264 59.1307C103.709 59.3769 104.228 59.5 104.82 59.5C105.416 59.5 105.935 59.3769 106.375 59.1307C106.82 58.8845 107.164 58.5459 107.405 58.1151C107.651 57.6842 107.774 57.1918 107.774 56.6378V47.4545ZM123.28 47.4545H127.072L131.078 57.2273H131.249L135.254 47.4545H139.047V62H136.064V52.5327H135.943L132.179 61.929H130.148L126.384 52.4972H126.263V62H123.28V47.4545Z" fill="white"/>
</svg>
