<svg width="56" height="55" viewBox="0 0 56 55" fill="none" xmlns="http://www.w3.org/2000/svg">
<path d="M51.2864 0.550781H4.3463C1.94497 0.550781 0 2.45437 0 4.80461V50.7459C0 53.0962 1.94497 54.9998 4.3463 54.9998H51.2864C53.6877 54.9998 55.6327 53.0962 55.6327 50.7459V4.80461C55.6327 2.45437 53.6877 0.550781 51.2864 0.550781ZM52.3729 50.7459C52.3729 51.3308 51.884 51.8094 51.2864 51.8094H4.3463C3.74868 51.8094 3.25973 51.3308 3.25973 50.7459V4.80461C3.25973 4.21971 3.74868 3.74115 4.3463 3.74115H51.2864C51.884 3.74115 52.3729 4.21971 52.3729 4.80461V50.7459Z" fill="white"/>
<path d="M31.4892 18.4912C32.6084 18.4912 33.8036 18.8316 33.8036 18.8316L34.5208 14.6628C34.5208 14.6628 32.9996 14.1523 29.3704 14.1523C27.1429 14.1523 25.8499 14.9818 24.9046 16.2048C24.0136 17.364 23.981 19.225 23.981 20.4267V23.1598H21.1016V27.2329H23.981V41.3768H29.3704V27.2329H33.6406L33.9557 23.1598H29.3704V19.9801C29.3704 18.8847 30.3701 18.4912 31.4892 18.4912Z" fill="white"/>
</svg>
