<svg width="54" height="54" viewBox="0 0 54 54" fill="none" xmlns="http://www.w3.org/2000/svg">
<g clip-path="url(#clip0_35_156)">
<path d="M49.7812 0H4.21875C1.88789 0 0 1.88789 0 4.21875V49.7812C0 52.1121 1.88789 54 4.21875 54H49.7812C52.1121 54 54 52.1121 54 49.7812V4.21875C54 1.88789 52.1121 0 49.7812 0ZM50.8359 49.7812C50.8359 50.3613 50.3613 50.8359 49.7812 50.8359H4.21875C3.63867 50.8359 3.16406 50.3613 3.16406 49.7812V4.21875C3.16406 3.63867 3.63867 3.16406 4.21875 3.16406H49.7812C50.3613 3.16406 50.8359 3.63867 50.8359 4.21875V49.7812Z" fill="white"/>
<path d="M35.29 13.5H18.7314C15.8521 13.5 13.5107 15.8414 13.5107 18.7207V24.2367V35.2898C13.5107 38.1691 15.8521 40.5105 18.7314 40.5105H35.29C38.1693 40.5105 40.5107 38.1691 40.5107 35.2898V24.2262V18.7102C40.5002 15.8414 38.1588 13.5 35.29 13.5ZM36.7877 16.6113H37.3889V17.202V21.1887L32.8221 21.1992L32.8115 16.6219L36.7877 16.6113ZM23.1506 24.2262C24.0154 23.0344 25.4182 22.2434 27.0002 22.2434C28.5822 22.2434 29.985 23.0238 30.8498 24.2262C31.4193 25.0066 31.7463 25.9664 31.7463 27C31.7463 29.6156 29.6158 31.7566 26.9896 31.7566C24.3635 31.7566 22.2541 29.6156 22.2541 27C22.2541 25.9664 22.5916 25.0066 23.1506 24.2262ZM37.874 35.2793C37.874 36.7031 36.7139 37.8633 35.29 37.8633H18.7314C17.3076 37.8633 16.1475 36.7031 16.1475 35.2793V24.2262H20.1764C19.8283 25.0805 19.6279 26.0191 19.6279 27C19.6279 31.0711 22.9396 34.3828 27.0107 34.3828C31.0818 34.3828 34.3936 31.0711 34.3936 27C34.3936 26.0191 34.1932 25.0805 33.8451 24.2262H37.874V35.2793Z" fill="white"/>
</g>
<defs>
<clipPath id="clip0_35_156">
<rect width="54" height="54" fill="white"/>
</clipPath>
</defs>
</svg>
