<svg width="54" height="55" viewBox="0 0 54 55" fill="none" xmlns="http://www.w3.org/2000/svg">
<path d="M3.62317 0.0546875H8.4704L11.5927 9.84039H11.8947L14.8724 0.0546875H19.7611L14.16 14.3781V24.539H9.34875V14.8338L3.62317 0.0546875ZM20.2702 10.5989C20.2702 9.16224 20.8498 8.02045 22.0097 7.16806C23.1682 6.31577 24.7255 5.88963 26.682 5.88963C28.4637 5.88963 29.9229 6.33994 31.0596 7.23777C32.1992 8.1356 32.7675 9.29082 32.7675 10.7061V20.2881C32.7675 21.8749 32.2084 23.1212 31.0939 24.0245C29.9781 24.9277 28.4412 25.3807 26.4866 25.3807C24.603 25.3807 23.0965 24.9143 21.9656 23.9816C20.8361 23.0489 20.2702 21.7945 20.2702 20.2157V10.5989ZM24.7012 20.5641C24.7012 21.0761 24.8531 21.4674 25.1604 21.7489C25.467 22.0276 25.9045 22.1643 26.4736 22.1643C27.0571 22.1643 27.5209 22.0249 27.8637 21.7408C28.2071 21.4541 28.3795 21.0626 28.3795 20.5641V10.4595C28.3795 10.0547 28.2032 9.7277 27.8532 9.47849C27.5033 9.22916 27.0433 9.10315 26.4736 9.10315C25.9492 9.10315 25.5215 9.22916 25.1939 9.47849C24.865 9.7277 24.7012 10.0547 24.7012 10.4595V20.5641ZM48.5147 6.18719V24.7401H44.2028V22.6923C43.4068 23.4483 42.5806 24.0217 41.72 24.4185C40.8608 24.8098 40.0253 25.0081 39.2173 25.0081C38.2201 25.0081 37.4673 24.7321 36.962 24.1799C36.4567 23.6277 36.2041 22.7995 36.2041 21.6953V6.18719H40.5173V20.4088C40.5173 20.851 40.6081 21.1673 40.7883 21.3656C40.9701 21.5613 41.2621 21.6604 41.6661 21.6604C41.9844 21.6604 42.3858 21.5291 42.8684 21.2691C43.354 21.0091 43.7986 20.6768 44.2026 20.272V6.18719H48.5147ZM44.474 39.0233C44.2622 38.7847 43.9252 38.6615 43.4621 38.6615C42.978 38.6615 42.6307 38.7847 42.4202 39.0233C42.2096 39.2644 42.1044 39.6638 42.1044 40.2213V41.3765H44.791V40.2213C44.791 39.6638 44.6857 39.2644 44.474 39.0233ZM31.7307 47.7208C31.9622 47.8172 32.207 47.8628 32.4649 47.8628C32.8385 47.8628 33.1096 47.7716 33.2859 47.584C33.4621 47.399 33.549 47.0909 33.549 46.6674V39.9881C33.549 39.5379 33.4411 39.1975 33.2254 38.9643C33.0082 38.7311 32.6913 38.6158 32.2807 38.6158C32.0636 38.6158 31.8491 38.6587 31.6371 38.7445C31.4254 38.8329 31.2162 38.9697 31.0096 39.1518V47.2517C31.257 47.4715 31.4977 47.6269 31.7307 47.7208ZM51.7319 33.5797C51.7319 30.3633 48.4883 27.7554 44.491 27.7554C38.7886 27.5596 32.9532 27.4739 26.9999 27.4845C21.0486 27.4738 15.2131 27.5595 9.50864 27.7554C5.51338 27.7554 2.27 30.3632 2.27 33.5797C2.02985 36.1232 1.92586 38.6694 1.93514 41.2157C1.92596 43.762 2.02985 46.3082 2.27 48.8545C2.27 52.0681 5.51338 54.6759 9.50864 54.6759C15.2131 54.8689 21.0486 54.9548 26.9999 54.9467C32.9532 54.9548 38.7886 54.8689 44.491 54.6759C48.4883 54.6759 51.7319 52.0681 51.7319 48.8545C51.9713 46.3082 52.0751 43.762 52.0645 41.2157C52.0751 38.6694 51.9713 36.1232 51.7319 33.5797ZM12.7881 49.7873V49.9803H9.3632V49.7873V34.5526H5.81987V34.3623V31.9341V31.7438H16.3321V31.9341V34.3623V34.5526H12.7881V49.7873ZM24.9715 36.6673V49.7873V49.9803H21.9307V49.7873V48.5088C21.3689 49.0528 20.7866 49.4629 20.1808 49.7471C19.5736 50.0284 18.9854 50.1705 18.4144 50.1705C17.7118 50.1705 17.1821 49.9721 16.8255 49.5781C16.4683 49.1815 16.29 48.5865 16.29 47.7931V47.6V36.6673V36.4769H19.3321V36.6673V46.6807C19.3321 46.9944 19.3953 47.2248 19.5222 47.3642C19.6505 47.5063 19.857 47.576 20.1419 47.576C20.3662 47.576 20.6485 47.4822 20.9906 47.2972C21.3314 47.1095 21.6445 46.8711 21.9307 46.5816V36.6673V36.4769H24.9715V36.6673ZM36.6793 39.8381V47.0292V47.2222C36.6793 48.1684 36.4411 48.892 35.9649 49.3959C35.4884 49.8945 34.799 50.1464 33.899 50.1464C33.3043 50.1464 32.7756 50.0499 32.3096 49.8569C31.8426 49.6612 31.4098 49.361 31.0097 48.9562V49.7871V49.9802H27.94V49.7871V31.934V31.7437H31.0097V31.934V37.5518C31.4203 37.1443 31.8544 36.8361 32.315 36.6271C32.7768 36.4154 33.2441 36.3082 33.7149 36.3082C34.6754 36.3082 35.4123 36.5923 35.9188 37.1606C36.4253 37.7287 36.6793 38.5569 36.6793 39.6452V39.8381ZM47.9212 40.2455V43.4431V43.6362H42.1044V45.9544C42.1044 46.6541 42.2043 47.1392 42.4043 47.4099C42.6056 47.6807 42.9477 47.8174 43.4318 47.8174C43.9359 47.8174 44.2898 47.7021 44.491 47.4716C44.691 47.2437 44.791 46.7371 44.791 45.9544V45.2228V45.0299H47.9213V45.2228V46.0295V46.2225C47.9213 47.5867 47.5411 48.6133 46.778 49.3048C46.016 49.9964 44.8779 50.3394 43.3635 50.3394C42.0017 50.3394 40.9307 49.9722 40.1477 49.2406C39.3662 48.5088 38.9742 47.5011 38.9742 46.2225V46.0295V40.2455V40.0553C38.9742 38.9 39.4043 37.9592 40.2623 37.2302C41.1214 36.5038 42.2334 36.1393 43.5938 36.1393C44.9859 36.1393 46.0542 36.477 46.8018 37.1497C47.5465 37.8226 47.9213 38.7928 47.9213 40.0553V40.2455H47.9212Z" fill="white"/>
</svg>
